<svg data-type="logoElastic" xmlns="http://www.w3.org/2000/svg" width="32" height="32" fill="none" viewBox="0 0 32 32">
<path style="fill:#010101; stroke:none;" d="M0 0L0 206L211 206L211 0L0 0z"/>
<path style="fill:#231915; stroke:none;" d="M9 102L53 102C53.0798 73.0678 78.2741 48.5929 107 48L107 4C53.4819 4.44308 9.00593 48.2836 9 102z"/>
<path style="fill:#850d15; stroke:none;" d="M107 4L107 48C108.552 44.3013 108 39.9828 108 36L108 16C108 12.0172 108.552 7.69865 107 4z"/>
<path style="fill:#e50113; stroke:none;" d="M108 4L108 48C136.86 48.5957 163.106 74.6247 161.96 104C161.303 120.825 152.207 136.295 139 146.471C124.061 157.982 104.233 159.672 87 152.932C83.0531 151.388 79.4448 149.163 76 146.715C74.0038 145.297 71.6615 142.931 69 143.117C65.1028 143.391 61.535 148.466 59 151L38 172C45.1278 181.91 57.8613 188.884 69 193.396C101.848 206.702 141.154 202.212 169 179.689C220.446 138.078 216.882 52.9582 159 18.4529C143.727 9.34843 125.803 4.1474 108 4z"/>
<path style="fill:#010101; stroke:none;" d="M100 48.439C91.789 49.7215 83.9769 52.5383 77 57.1011C71.314 60.8196 66.7013 65.5032 62.7461 71C35.0036 109.556 69.3886 163.898 116 156.561C123.427 155.392 130.621 152.494 137 148.532C142.476 145.132 147.404 140.156 151.239 135C179.051 97.6102 147.009 41.0969 100 48.439z"/>
<path style="fill:#1b3b4b; stroke:none;" d="M9 102C13.4687 103.875 19.1913 103 24 103L53 103C48.5313 101.125 42.8087 102 38 102L9 102z"/>
<path style="fill:#019fe9; stroke:none;" d="M9 103C9.00285 128.808 19.1794 153.378 37 172C45.5317 165.99 52.6362 157.379 60 150C62.3159 147.679 66.6324 144.568 66.8827 141C67.1945 136.556 60.925 130.83 58.8897 127C54.9334 119.556 53.0231 111.382 53 103L9 103z"/>
<path style="fill:#576399; stroke:none;" d="M67 142L68 143L67 142M66 143L67 144L66 143M65 144L66 145L65 144M64 145L65 146L64 145M63 146L64 147L63 146M62 147L63 148L62 147M61 148L62 149L61 148M60 149L61 150L60 149M59 150L60 151L59 150M58 151L59 152L58 151M57 152L58 153L57 152M56 153L57 154L56 153M55 154L56 155L55 154M54 155L55 156L54 155M53 156L54 157L53 156M52 157L53 158L52 157M51 158L52 159L51 158M50 159L51 160L50 159M49 160L50 161L49 160M48 161L49 162L48 161M47 162L48 163L47 162M46 163L47 164L46 163M45 164L46 165L45 164M44 165L45 166L44 165M43 166L44 167L43 166M42 167L43 168L42 167M41 168L42 169L41 168M40 169L41 170L40 169M39 170L40 171L39 170z"/>
<path style="fill:#65598b; stroke:none;" d="M38 171L39 172L38 171z"/>
</svg>
